<svg xmlns="http://www.w3.org/2000/svg" width="220" height="131.741"
    >
    <defs>
        <linearGradient id="A">
            <stop stop-color="#8f5e25" offset="0"/>
            <stop stop-color="#fbf4a1" offset=".5"/>
            <stop stop-color="#8f5e25" offset="1"/>
        </linearGradient>
    </defs>
    <path d="M152.575 0l-39.55 13.604v47.351c-1.725-.814-4.021-.943-6.303-.182-3.947 1.316-6.347 4.782-5.36 7.742s4.986 4.293 8.934 2.978c3.524-1.174 5.806-4.062 5.555-6.775V22.092l33.9-11.674v30.774c-1.728-.825-4.036-.96-6.33-.195-3.947 1.316-6.347 4.782-5.36 7.742s4.986 4.293 8.934 2.978c3.319-1.106 5.535-3.734 5.573-6.302h.008V0zM81.008.434v40.492c-1.76-.84-4.22-.914-6.557-.135-4.02 1.34-6.465 4.87-5.46 7.885s5.078 4.373 9.099 3.033c3.381-1.127 5.694-3.802 5.732-6.418h.01V13.617s12.172 3.523 16.008 16.95c0-15.345-13.183-17.892-18.833-30.133zm17.348 65.916H65v1.883h33.406a7.3 7.3 0 0 1-.05-1.883zm57.043 1.883v-1.883h-36.819c-.109.648-.296 1.28-.557 1.883H155.4zM67.898 52.226H65v1.883h5.528c-1.018-.472-1.91-1.107-2.629-1.883zm87.501 1.883v-1.883h-3.549c-.921.757-1.989 1.4-3.18 1.883h6.729zm-18.456-1.883h-18.269v1.883h20.863a8.23 8.23 0 0 1-2.593-1.883zm-53.968 0a12.62 12.62 0 0 1-3.233 1.883H110.2v-1.883H82.976zm3.682-14.125H110.2v1.883H86.658zm-13.066 0H65v1.883h4.944a12.83 12.83 0 0 1 3.615-1.874c.011-.004.023-.006.034-.009zm45.082 1.883h20.549a12.71 12.71 0 0 1 3.302-1.666l.75-.218h-24.601v1.883zM93.485 23.976h-6.827v1.883h8.094c-.402-.67-.826-1.298-1.267-1.883zm-28.485 0h13.183v1.883H65zm53.675 1.883h28.25v-1.883h-27.868l-.382.132zm-16.431 0h7.956v-1.883h-8.379l.423 1.883zm-8.303-14.125h16.976c.321-.365.73-.641 1.189-.801l3.146-1.082h-23.24l1.929 1.883zM65 9.851h13.183v1.883H65z" fill="#fce38f"/>
    <path d="M26.28 34.08c.36 0 1.12.16 1.12 1.4v3.16c0 1.24-.76 1.4-1.12 1.4h-13.2c-1.76 0-3.28-.24-4.48-.68a6.55 6.55 0 0 1-3.12-2.24c-.8-1-1.36-2.32-1.72-3.92-.36-1.56-.56-3.48-.56-5.72V8.44c0-1.28.8-1.4 1.16-1.4h3.68c.32 0 1.12.12 1.12 1.4v19.72c0 1.2.04 2.2.2 3 .12.72.36 1.32.68 1.76.28.44.68.72 1.16.88.56.2 1.24.28 2.08.28h13zM60.929 7.04c.32 0 .6.2.72.52.08.32.04.64-.12.92l-12.12 21.4v8.76c0 1.24-.8 1.36-1.12 1.36h-3.68c-.32 0-1.12-.12-1.12-1.36v-8.76l-12-21.4a1.15 1.15 0 0 1-.12-.88c.08-.36.36-.56.72-.56h4.56c.36 0 .84.12 1.16.76l8.72 16 8.8-16.04c.32-.6.8-.72 1.16-.72h4.44zm38.329 31.24c.16.24.2.56.16.96-.08.48-.44.8-.92.8h-4.4c-.36 0-.64-.08-.84-.24-.16-.12-.28-.32-.44-.56l-7.24-12.84h-8.44v12.24c0 1.24-.76 1.4-1.12 1.4h-3.64c-.36 0-1.16-.16-1.16-1.4v-16.8c0-1.24.8-1.36 1.16-1.36h17.4c1.04 0 1.72-.28 2.12-.88.44-.6.64-1.56.64-2.88s-.2-2.28-.64-2.88c-.4-.6-1.08-.88-2.12-.88h-17.4c-.36 0-1.16-.12-1.16-1.36V8.44c0-1.28.8-1.4 1.16-1.4h18.44c2.72 0 4.72.84 5.92 2.56 1.08 1.64 1.68 3.96 1.76 7v.24c-.08 3.08-.68 5.4-1.76 7-1 1.36-2.52 2.2-4.48 2.44zm14.529-31.24c.32 0 1.12.16 1.12 1.4v30.2c0 1.24-.8 1.4-1.12 1.4h-3.68c-.32 0-1.12-.16-1.12-1.4V8.44c0-1.24.8-1.4 1.12-1.4h3.68zm29.809 19.24l6.92 12c.16.2.2.52.16.92-.04.52-.36.84-.92.84h-4.32c-.4 0-.68-.08-.84-.24-.16-.12-.32-.32-.44-.56l-6.24-10.96c-.44-.8-.88-1.32-1.32-1.56-.48-.28-1.2-.4-2.16-.4h-4.04v12.32c0 1.24-.8 1.4-1.12 1.4h-3.68c-.32 0-1.16-.16-1.16-1.4V8.44c0-1.28.84-1.4 1.16-1.4h3.68c.32 0 1.12.12 1.12 1.4V20.4h3.68c.52 0 .96-.04 1.28-.08s.6-.12.84-.24c.2-.12.44-.32.64-.56l.68-1 6.04-10.68c.12-.28.28-.44.44-.56.16-.16.44-.24.88-.24h3.96c.48 0 .8.24.92.68.04.36 0 .68-.12.96l-6.6 11.6-1.08 1.8-.76 1.04c.8.76 1.6 1.84 2.4 3.16zm35.969-5.96c2.08 0 3.68.76 4.76 2.2 1.04 1.44 1.56 3.48 1.56 6.08v3.52c0 2.32-.52 4.2-1.52 5.64-1.04 1.48-2.68 2.24-4.88 2.24h-18.04c-.36 0-1.16-.12-1.16-1.36v-3.2c0-1.24.8-1.36 1.16-1.36h17.08c.68 0 .92-.28 1.08-.52.24-.4.36-.96.36-1.68v-3.44c0-1.96-.8-2.2-1.4-2.2h-12c-1.68 0-3.52-.24-4.76-1.88-1-1.4-1.56-3.64-1.56-6.4v-3.04c0-2.32.52-4.24 1.56-5.68 1.04-1.48 2.64-2.2 4.84-2.2h17.24c.32 0 1.12.12 1.12 1.36v3.2c0 1.24-.8 1.36-1.12 1.36h-16.28c-.68 0-.92.28-1.08.52-.2.4-.32.96-.32 1.68v2.96c0 1.96.76 2.2 1.36 2.2h12z" transform="matrix(1.204259 0 0 1.204259 -3.853629 83.522026)" fill="url(#A)"/>
</svg>